# xmcd CD database file
#
# Track frame offsets:
#	150
#	20605
#	38270
#
# Disc length: 740 seconds
#
# Revision: 0
# Processed by: cddbd v1.5PL3 Copyright (c) Steve Scherf et al.
# Submitted via: CDex 1.51
#
DISCID=1502e203
DTITLE=HARCO - スローモーション
DYEAR=1999
DGENRE=JPop
TTITLE0=スローモーション
TTITLE1=ワークショップ
TTITLE2=スローモーション Remix
EXTD=YEAR: 1999
EXTT0=
EXTT1=
EXTT2=
PLAYORDER=
